<svg xmlns="http://www.w3.org/2000/svg" viewBox="0 0 24 24">
  <path d="M12 .297C5.37.297 0 5.667 0 12.297c0 5.39 3.438 9.97 8.207 11.583.6.11.793-.26.793-.578 0-.29-.01-1.057-.015-2.075-3.34.727-4.042-1.61-4.042-1.61-.546-1.386-1.333-1.756-1.333-1.756-1.09-.74.083-.726.083-.726 1.206.085 1.839 1.237 1.839 1.237 1.07 1.84 2.81 1.31 3.49 1 .11-.776.42-1.31.76-1.61-2.665-.303-5.466-1.334-5.466-5.93 0-1.31.465-2.38 1.236-3.22-.124-.303-.535-1.527.117-3.18 0 0 1.005-.32 3.3 1.234.96-.266 1.98-.397 3-.403 1.02.006 2.04.137 3 .403 2.28-1.554 3.285-1.234 3.285-1.234.65 1.653.24 2.877.12 3.18.77.84 1.23 1.91 1.23 3.22 0 4.61-2.81 5.62-5.48 5.92.43.36.82 1.096.82 2.22 0 1.61-.015 2.91-.015 3.31 0 .32.19.69.8.57C20.565 22.267 24 17.687 24 12.297 24 5.667 18.63.297 12 .297z" fill="white"/>
</svg>
